<svg width="current" height="current" viewBox="0 0 19 21" xmlns="http://www.w3.org/2000/svg">
<path d="M2 19H14V9H2V19ZM8 16C8.55 16 9.02083 15.8042 9.4125 15.4125C9.80417 15.0208 10 14.55 10 14C10 13.45 9.80417 12.9792 9.4125 12.5875C9.02083 12.1958 8.55 12 8 12C7.45 12 6.97917 12.1958 6.5875 12.5875C6.19583 12.9792 6 13.45 6 14C6 14.55 6.19583 15.0208 6.5875 15.4125C6.97917 15.8042 7.45 16 8 16ZM2 21C1.45 21 0.979167 20.8042 0.5875 20.4125C0.195833 20.0208 0 19.55 0 19V9C0 8.45 0.195833 7.97917 0.5875 7.5875C0.979167 7.19583 1.45 7 2 7H9V5C9 3.61667 9.4875 2.4375 10.4625 1.4625C11.4375 0.4875 12.6167 0 14 0C15.3833 0 16.5625 0.4875 17.5375 1.4625C18.5125 2.4375 19 3.61667 19 5H17C17 4.16667 16.7083 3.45833 16.125 2.875C15.5417 2.29167 14.8333 2 14 2C13.1667 2 12.4583 2.29167 11.875 2.875C11.2917 3.45833 11 4.16667 11 5V7H14C14.55 7 15.0208 7.19583 15.4125 7.5875C15.8042 7.97917 16 8.45 16 9V19C16 19.55 15.8042 20.0208 15.4125 20.4125C15.0208 20.8042 14.55 21 14 21H2Z" fill="white"/>
</svg>
